<mxfile host="app.diagrams.net" modified="2023-06-09T00:32:36.159Z" agent="5.0 (Windows NT 10.0; Win64; x64) AppleWebKit/537.36 (KHTML, like Gecko) Chrome/114.0.0.0 Safari/537.36" etag="kIcCkMTZCVCI3wyad-35" version="15.4.3" type="github">
  <diagram id="lEygy_q0v6EAMQS8VqPl" name="Page-1">
    <mxGraphModel dx="782" dy="460" grid="1" gridSize="10" guides="1" tooltips="1" connect="1" arrows="1" fold="1" page="1" pageScale="1" pageWidth="827" pageHeight="1169" math="0" shadow="0">
      <root>
        <mxCell id="0" />
        <mxCell id="1" parent="0" />
        <mxCell id="YSDI49GLaZ126UhvWV8y-13" style="edgeStyle=orthogonalEdgeStyle;rounded=0;orthogonalLoop=1;jettySize=auto;html=1;exitX=0.25;exitY=1;exitDx=0;exitDy=0;entryX=0.328;entryY=-0.025;entryDx=0;entryDy=0;entryPerimeter=0;fontSize=18;" edge="1" parent="1" source="YSDI49GLaZ126UhvWV8y-1" target="YSDI49GLaZ126UhvWV8y-2">
          <mxGeometry relative="1" as="geometry" />
        </mxCell>
        <mxCell id="YSDI49GLaZ126UhvWV8y-1" value="&lt;font style=&quot;font-size: 18px&quot;&gt;User&lt;/font&gt;" style="rounded=0;whiteSpace=wrap;html=1;" vertex="1" parent="1">
          <mxGeometry x="320" y="350" width="120" height="60" as="geometry" />
        </mxCell>
        <mxCell id="YSDI49GLaZ126UhvWV8y-15" style="edgeStyle=orthogonalEdgeStyle;rounded=0;orthogonalLoop=1;jettySize=auto;html=1;exitX=1;exitY=0;exitDx=0;exitDy=0;fontSize=18;entryX=0.661;entryY=1.011;entryDx=0;entryDy=0;entryPerimeter=0;" edge="1" parent="1" source="YSDI49GLaZ126UhvWV8y-2" target="YSDI49GLaZ126UhvWV8y-1">
          <mxGeometry relative="1" as="geometry">
            <mxPoint x="412" y="420" as="targetPoint" />
            <Array as="points">
              <mxPoint x="400" y="482" />
              <mxPoint x="400" y="420" />
            </Array>
          </mxGeometry>
        </mxCell>
        <mxCell id="YSDI49GLaZ126UhvWV8y-27" style="edgeStyle=orthogonalEdgeStyle;rounded=0;orthogonalLoop=1;jettySize=auto;html=1;exitX=0.5;exitY=1;exitDx=0;exitDy=0;fontSize=12;" edge="1" parent="1" source="YSDI49GLaZ126UhvWV8y-2">
          <mxGeometry relative="1" as="geometry">
            <mxPoint x="350" y="620" as="targetPoint" />
            <Array as="points">
              <mxPoint x="350" y="550" />
            </Array>
          </mxGeometry>
        </mxCell>
        <mxCell id="YSDI49GLaZ126UhvWV8y-2" value="Sistem" style="ellipse;whiteSpace=wrap;html=1;fontSize=18;" vertex="1" parent="1">
          <mxGeometry x="310" y="470" width="120" height="80" as="geometry" />
        </mxCell>
        <mxCell id="YSDI49GLaZ126UhvWV8y-25" style="edgeStyle=orthogonalEdgeStyle;rounded=0;orthogonalLoop=1;jettySize=auto;html=1;exitX=0.75;exitY=0;exitDx=0;exitDy=0;entryX=0.75;entryY=1;entryDx=0;entryDy=0;entryPerimeter=0;fontSize=12;" edge="1" parent="1" source="YSDI49GLaZ126UhvWV8y-5" target="YSDI49GLaZ126UhvWV8y-2">
          <mxGeometry relative="1" as="geometry" />
        </mxCell>
        <mxCell id="YSDI49GLaZ126UhvWV8y-5" value="Gudang" style="rounded=0;whiteSpace=wrap;html=1;fontSize=18;" vertex="1" parent="1">
          <mxGeometry x="310" y="630" width="120" height="60" as="geometry" />
        </mxCell>
        <mxCell id="YSDI49GLaZ126UhvWV8y-18" value="&lt;font style=&quot;font-size: 12px&quot;&gt;Pesanan&lt;/font&gt;" style="text;html=1;strokeColor=none;fillColor=none;align=center;verticalAlign=middle;whiteSpace=wrap;rounded=0;fontSize=18;" vertex="1" parent="1">
          <mxGeometry x="290" y="425" width="60" height="30" as="geometry" />
        </mxCell>
        <mxCell id="YSDI49GLaZ126UhvWV8y-19" value="Data Barang" style="text;html=1;strokeColor=none;fillColor=none;align=center;verticalAlign=middle;whiteSpace=wrap;rounded=0;fontSize=12;" vertex="1" parent="1">
          <mxGeometry x="430" y="435" width="60" height="20" as="geometry" />
        </mxCell>
        <mxCell id="YSDI49GLaZ126UhvWV8y-20" value="konfirmasi barang masuk/keluar" style="text;html=1;strokeColor=none;fillColor=none;align=center;verticalAlign=middle;whiteSpace=wrap;rounded=0;fontSize=12;" vertex="1" parent="1">
          <mxGeometry x="260" y="570" width="60" height="30" as="geometry" />
        </mxCell>
        <mxCell id="YSDI49GLaZ126UhvWV8y-21" value="Laporan barang masuk" style="text;html=1;strokeColor=none;fillColor=none;align=center;verticalAlign=middle;whiteSpace=wrap;rounded=0;fontSize=12;" vertex="1" parent="1">
          <mxGeometry x="430" y="560" width="60" height="30" as="geometry" />
        </mxCell>
        <mxCell id="YSDI49GLaZ126UhvWV8y-28" value="&lt;h1&gt;DFD level 0&lt;/h1&gt;&lt;div&gt;&lt;br&gt;&lt;/div&gt;" style="text;html=1;strokeColor=none;fillColor=none;spacing=5;spacingTop=-20;whiteSpace=wrap;overflow=hidden;rounded=0;fontSize=12;" vertex="1" parent="1">
          <mxGeometry x="60" y="300" width="190" height="120" as="geometry" />
        </mxCell>
        <mxCell id="YSDI49GLaZ126UhvWV8y-30" value="User" style="rounded=0;whiteSpace=wrap;html=1;fontSize=12;" vertex="1" parent="1">
          <mxGeometry x="50" y="960" width="120" height="60" as="geometry" />
        </mxCell>
        <mxCell id="YSDI49GLaZ126UhvWV8y-42" style="edgeStyle=orthogonalEdgeStyle;rounded=0;orthogonalLoop=1;jettySize=auto;html=1;exitX=0.5;exitY=1;exitDx=0;exitDy=0;entryX=1.006;entryY=0.412;entryDx=0;entryDy=0;entryPerimeter=0;fontSize=12;" edge="1" parent="1" source="YSDI49GLaZ126UhvWV8y-31" target="YSDI49GLaZ126UhvWV8y-34">
          <mxGeometry relative="1" as="geometry" />
        </mxCell>
        <mxCell id="YSDI49GLaZ126UhvWV8y-31" value="Gudang" style="rounded=0;whiteSpace=wrap;html=1;fontSize=12;" vertex="1" parent="1">
          <mxGeometry x="600" y="960" width="120" height="60" as="geometry" />
        </mxCell>
        <mxCell id="YSDI49GLaZ126UhvWV8y-38" style="edgeStyle=orthogonalEdgeStyle;rounded=0;orthogonalLoop=1;jettySize=auto;html=1;fontSize=12;entryX=0;entryY=0.5;entryDx=0;entryDy=0;" edge="1" parent="1" source="YSDI49GLaZ126UhvWV8y-30" target="YSDI49GLaZ126UhvWV8y-32">
          <mxGeometry relative="1" as="geometry" />
        </mxCell>
        <mxCell id="YSDI49GLaZ126UhvWV8y-39" value="" style="edgeStyle=orthogonalEdgeStyle;rounded=0;orthogonalLoop=1;jettySize=auto;html=1;fontSize=12;" edge="1" parent="1" source="YSDI49GLaZ126UhvWV8y-32" target="YSDI49GLaZ126UhvWV8y-33">
          <mxGeometry relative="1" as="geometry" />
        </mxCell>
        <mxCell id="YSDI49GLaZ126UhvWV8y-32" value="Pesan Gudang" style="ellipse;whiteSpace=wrap;html=1;fontSize=12;" vertex="1" parent="1">
          <mxGeometry x="330" y="870" width="120" height="80" as="geometry" />
        </mxCell>
        <mxCell id="YSDI49GLaZ126UhvWV8y-40" style="edgeStyle=orthogonalEdgeStyle;rounded=0;orthogonalLoop=1;jettySize=auto;html=1;exitX=1;exitY=0;exitDx=0;exitDy=0;fontSize=12;" edge="1" parent="1" source="YSDI49GLaZ126UhvWV8y-33">
          <mxGeometry relative="1" as="geometry">
            <mxPoint x="590" y="992" as="targetPoint" />
          </mxGeometry>
        </mxCell>
        <mxCell id="YSDI49GLaZ126UhvWV8y-33" value="Laporan Barang" style="ellipse;whiteSpace=wrap;html=1;fontSize=12;" vertex="1" parent="1">
          <mxGeometry x="330" y="980" width="120" height="80" as="geometry" />
        </mxCell>
        <mxCell id="YSDI49GLaZ126UhvWV8y-43" style="edgeStyle=orthogonalEdgeStyle;rounded=0;orthogonalLoop=1;jettySize=auto;html=1;exitX=0;exitY=0.5;exitDx=0;exitDy=0;fontSize=12;" edge="1" parent="1" source="YSDI49GLaZ126UhvWV8y-34">
          <mxGeometry relative="1" as="geometry">
            <mxPoint x="120" y="1030" as="targetPoint" />
          </mxGeometry>
        </mxCell>
        <mxCell id="YSDI49GLaZ126UhvWV8y-34" value="Konfirmasi" style="ellipse;whiteSpace=wrap;html=1;fontSize=12;" vertex="1" parent="1">
          <mxGeometry x="340" y="1089" width="120" height="80" as="geometry" />
        </mxCell>
        <mxCell id="YSDI49GLaZ126UhvWV8y-44" value="&lt;h1&gt;DFD level 1&lt;/h1&gt;" style="text;html=1;strokeColor=none;fillColor=none;spacing=5;spacingTop=-20;whiteSpace=wrap;overflow=hidden;rounded=0;fontSize=12;" vertex="1" parent="1">
          <mxGeometry x="40" y="800" width="190" height="120" as="geometry" />
        </mxCell>
      </root>
    </mxGraphModel>
  </diagram>
</mxfile>
